<svg width="24" height="24" viewBox="0 0 24 24" fill="none" xmlns="http://www.w3.org/2000/svg">
<path fill-rule="evenodd" clip-rule="evenodd" d="M9.9631 2.89057L14.452 2.96939L11.3476 9.1304L13.5916 9.25535L11.3476 15.2403L17.7065 7.75933H15.4625L19.3023 2.4805C17.2788 0.925786 14.7488 0 12 0C5.37191 0 0 5.37275 0 12C0 13.9857 0.485534 15.8566 1.33836 17.5061L1.60922 17.0868L9.9631 2.8914V2.89057Z" fill="#F37021"/>
<path fill-rule="evenodd" clip-rule="evenodd" d="M22.6935 6.8872L19.0289 20.8998H14.291L16.3346 14.1191L9.60169 20.478L8.47968 14.1191L4.73964 21.101L4.45117 21.3266C6.51323 22.997 9.13964 24 12 24C18.6273 24 24 18.6272 24 12C24 10.1048 23.5589 8.31277 22.7765 6.71948L22.6944 6.8872H22.6935Z" fill="#F37021"/>
</svg>
